<svg width="64" height="64" viewBox="0 0 64 64" fill="none" xmlns="http://www.w3.org/2000/svg">
<rect width="64" height="64" fill="white"/>
<path d="M42.2449 28.2068H45.7078V31.9386H42.2449V39.0696C42.2449 41.4966 42.3952 41.4894 42.6957 41.7737C42.9963 42.058 43.5974 42.2002 44.4991 42.2002C44.7997 42.2357 45.0627 42.2002 45.3632 42.1647C45.6262 42.1647 45.9896 41.9633 46.1774 41.7737V45.6832C45.7078 45.8839 45.1754 46.1097 44.6494 46.1097C44.0858 46.1453 43.5599 46.1453 43.0339 46.1453C42.9987 46.1453 42.4038 46.1453 42.1533 46.1097C41.5432 46.0231 40.6358 45.701 40.0723 45.3811C39.7592 45.2034 38.9452 44.4038 38.8513 44.0483C38.5695 43.6041 38.4127 42.7333 38.4127 41.8093V31.9386H35.0942V28.2068H38.4127V21.9871H42.2449V28.2068Z" fill="#10239E"/>
<path fill-rule="evenodd" clip-rule="evenodd" d="M18.5635 31.9386H21.1934V45.7188H25.4013V31.9386H28.5196L28.5196 28.2068H25.4013L25.4013 27.887C25.4013 27.1406 25.5516 26.4318 25.8521 26.1119C26.1527 25.7921 26.6787 25.6144 27.4301 25.6144C28.1063 25.6144 28.745 25.6499 29.3837 25.721V21.9871L27.9561 21.9871L26.5472 21.9871C24.7626 21.9871 23.3537 22.8481 22.5083 23.6753C21.4188 24.7416 21.1934 25.9677 21.1934 27.5671L21.1934 28.2068H18.5635L18.5635 31.9386ZM33.9673 33.538H29.8721V45.7188H33.9673V33.538Z" fill="#10239E"/>
<path d="M33.9673 30.1083C33.9673 31.1909 33.0775 32.0686 31.9948 32.0686C30.9122 32.0686 30.0224 31.1909 30.0224 30.1083C30.0224 29.0257 30.9122 28.148 31.9948 28.148C33.0775 28.148 33.9673 29.0257 33.9673 30.1083Z" fill="#40A9FF"/>
</svg>
